<svg width="20" height="20" fill="none" xmlns="http://www.w3.org/2000/svg"><path fill-rule="evenodd" clip-rule="evenodd" d="M0 10C0 4.579 4.579 0 10 0s10 4.579 10 10c0 3.19-1.592 6.078-4 7.924V18h-.102c-1.668 1.245-3.711 2-5.898 2s-4.23-.755-5.898-2H4v-.076C1.592 16.078 0 13.189 0 10zm7.123 5.236a3.002 3.002 0 00-1.049 1.691A7.82 7.82 0 0010 18a7.82 7.82 0 003.926-1.073A3.003 3.003 0 0011 14.573H9a3.002 3.002 0 00-1.877.663zm6.645-1.824a5.007 5.007 0 011.842 2.229C17.077 14.182 18 12.176 18 10c0-4.337-3.663-8-8-8s-8 3.663-8 8c0 2.176.923 4.182 2.39 5.641A5.007 5.007 0 019 12.573h2a5.007 5.007 0 012.768.839zM6 8c0-2.28 1.72-4 4-4 2.28 0 4 1.72 4 4 0 2.28-1.72 4-4 4-2.28 0-4-1.72-4-4zm2 0c0 1.178.822 2 2 2s2-.822 2-2-.822-2-2-2-2 .822-2 2z" fill="#9B9B9B"/></svg>
